<?xml version="1.0" encoding="utf-8"?>
<!-- Svg Vector Icons : http://www.onlinewebfonts.com/icon -->
<!DOCTYPE svg PUBLIC "-//W3C//DTD SVG 1.1//EN" "http://www.w3.org/Graphics/SVG/1.1/DTD/svg11.dtd">
<svg version="1.1" xmlns="http://www.w3.org/2000/svg" xmlns:xlink="http://www.w3.org/1999/xlink" x="0px" y="0px" viewBox="0 0 1000 1000" enable-background="new 0 0 1000 1000" xml:space="preserve">
<metadata> Svg Vector Icons : http://www.onlinewebfonts.com/icon </metadata>
<g><path d="M493.6,794C196.9,794,10,576.3,10,518.6C10,460.8,196.9,206,493.6,206C790.2,206,990,444,990,518.6C990,593.1,790.2,794,493.6,794z M480.2,368.2c-43.3,0-78.4,36.3-78.4,81c0,44.7,35.1,81,78.4,81c43.3,0,78.4-36.3,78.4-81C558.6,404.4,523.5,368.2,480.2,368.2z M715.6,327.7c28.6,39.3,48,79.2,48,132.1c0,129.9-102.1,235.2-228.1,235.2c-125.9,0-228-105.3-228-235.2c0-80.3,15.4-130.2,74.9-172.7C194.4,316,76,472.2,76,514.9c0,46.8,155.7,217.2,414.2,217.2c258.5,0,427.8-156.8,427.8-217.2C918,475.6,873.8,393.3,715.6,327.7z"/></g>
</svg>